:100000000C9435000C945D000C945D000C945D0024
:100010000C945D000C945D000C945D000C945D00EC
:100020000C945D000C945D000C945D000C945D00DC
:100030000C945D000C945D000C945D000C945D00CC
:100040000C947D030C945D000C94CE010C94000282
:100050000C945D000C945D000C945D000C945D00AC
:100060000C945D000C945D00300211241FBECFEF94
:10007000D8E0DEBFCDBF11E0A0E0B1E0E8E5F8E0F8
:1000800002C005900D92AA3FB107D9F722E0AAEF6E
:10009000B1E001C01D92A03AB207E1F710E0CAE654
:1000A000D0E004C02297FE010E942604C836D10782
:1000B000C9F70E9474020C942A040C94000026E0F4
:1000C00040E855E260E070E08AEF91E00E946C0148
:1000D00069ED71E08AEF91E00C94DC02C0E0D1E0C0
:1000E00081E0C93DD80740F440E150E069918AEFD2
:1000F00091E00E946603F4CFC0E0D1E081E0C93D09
:10010000D80730F469918AEF91E00E94EE02F6CFB1
:10011000FFCFFC01818D228D90E0805C9F4F821B80
:1001200091098F7399270895FC01918D828D9817FD
:1001300031F0828DE80FF11D858D90E008958FEFED
:100140009FEF0895FC01918D828D981761F0828D4B
:10015000DF01A80FB11D5D968C91928D9F5F9F73FB
:10016000928F90E008958FEF9FEF089586E292E0DE
:10017000892B49F080E090E0892B29F00E9426022B
:1001800081110C9400000895FC01848DDF01A80FFB
:10019000B11DA35ABF4F2C91848D90E001968F73AF
:1001A0009927848FA689B7892C93A089B1898C91CE
:1001B00080648C93938D848D981306C00288F38994
:1001C000E02D80818F7D80830895CF93DF93EC01B4
:1001D000888D8823C9F0EA89FB89808185FD05C067
:1001E000A889B9898C9186FD0FC00FB607FCF5CFA1
:1001F000808185FFF2CFA889B9898C9185FFEDCFE9
:10020000CE010E94C400E7CFDF91CF910895CF9235
:10021000DF92FF920F931F93CF93DF931F92CDB77F
:10022000DEB76C01DC015B969C915B975C968C91D0
:100230005C97981307C05096ED91FC91519780817F
:1002400085FD32C0F601038D10E00F5F1F4F0F7365
:100250001127F02EF601848DF81211C00FB607FC9D
:10026000F9CFD6015096ED91FC915197808185FF91
:10027000F1CFC60169830E94C4006981EBCF838DF1
:10028000E80FF11DE35AFF4F6083D6015B960C9394
:100290005B975296ED91FC915397808180628083A9
:1002A00081E058968C930DC0D6015696ED91FC9145
:1002B000579760835096ED91FC91519780818064AF
:1002C000808381E090E00F90DF91CF911F910F919B
:1002D000FF90DF90CF900895BF92CF92DF92EF9280
:1002E000FF92CF93DF93EC016A017B01B22EE88984
:1002F000F98982E08083411581EE58076105710517
:10030000A1F060E079E08DE390E0A70196010E9402
:1003100002042150310941095109569547953795F5
:100320002795211580E1380798F0E889F98910822E
:1003300060E874E88EE190E0A70196010E94020453
:10034000215031094109510956954795379527950F
:10035000EC85FD853083EE85FF852083188EEC8942
:10036000FD89B082EA89FB89808180618083EA8986
:10037000FB89808188608083EA89FB89808180682D
:100380008083EA89FB8980818F7D8083DF91CF9193
:10039000FF90EF90DF90CF90BF9008951F920F9243
:1003A0000FB60F9211242F938F939F93EF93FF9388
:1003B000E0910A02F0910B028081E0911002F0912D
:1003C000110282FD12C09081809113028F5F8F73A2
:1003D00020911402821751F0E0911302F0E0E650F0
:1003E000FE4F958F8093130201C08081FF91EF91A2
:1003F0009F918F912F910F900FBE0F901F90189586
:100400001F920F920FB60F9211242F933F934F9389
:100410005F936F937F938F939F93AF93BF93EF936C
:10042000FF938AEF91E00E94C400FF91EF91BF918A
:10043000AF919F918F917F916F915F914F913F917C
:100440002F910F900FBE0F901F9018958AEF91E09B
:100450000E94890021E0892B09F420E0822F089571
:100460001092FD011092FC0188EE93E0A0E0B0E054
:100470008093FE019093FF01A0930002B0930102CC
:100480008EEE91E09093FB018093FA0185EC90E071
:10049000909307028093060284EC90E09093090207
:1004A0008093080280EC90E090930B0280930A0204
:1004B00081EC90E090930D0280930C0282EC90E02E
:1004C00090930F0280930E0286EC90E090931102BD
:1004D00080931002109213021092140210921502CF
:1004E00010921602089508950E94C7030E94730295
:1004F0000E945F00C6EBD0E00E946E002097E1F3FF
:100500000E94B600F9CFCF92DF92EF92FF920F9345
:100510001F93CF93DF936C017A01EB01E60EF71E78
:1005200000E010E0CE15DF0561F06991D601ED9194
:10053000FC910190F081E02DC6010995080F191F6B
:10054000F1CFC801DF91CF911F910F91FF90EF90F4
:10055000DF90CF9008956115710581F0DB010D905A
:100560000020E9F7AD0141505109461B570BDC0152
:10057000ED91FC910280F381E02D099480E090E000
:100580000895DC01ED91FC910190F081E02D09943A
:100590000F931F93CF93DF93EC016DE00E94C10294
:1005A0008C016AE0CE010E94C102800F911FDF9191
:1005B000CF911F910F9108950F931F93CF93DF93C6
:1005C000EC010E94AB028C01CE010E94C802800F98
:1005D000911FDF91CF911F910F9108950F931F935A
:1005E000CF93DF93EC010E94C1028C01CE010E94E7
:1005F000C802800F911FDF91CF911F910F91089535
:100600008F929F92AF92BF92CF92DF92EF92FF9222
:100610000F931F93CF93DF93CDB7DEB7A1970FB69C
:10062000F894DEBF0FBECDBF7C01C42EE52FCB01F9
:10063000D22E19A221E02D1510F02AE0D22E8E0123
:100640000F5D1F4F8D2C912CA12CB12C6C2D7E2F6A
:10065000A50194010E9402048C2DD29E80191124C0
:10066000015011098A3014F4805D01C0895CF801E1
:100670008083211531054105510521F0C22EE32F5C
:10068000CA01E4CFB801C7010E94AB02A1960FB620
:10069000F894DEBF0FBECDBFDF91CF911F910F91B8
:1006A000FF90EF90DF90CF90BF90AF909F908F9092
:1006B00008952115310541F4DC01ED91FC91019083
:1006C000F081E02D642F09940C9400030F931F9385
:1006D000CF93DF93EC019A01462F50E060E070E089
:1006E0000E9459038C01CE010E94C802800F911F05
:1006F000DF91CF911F910F9108951F920F920FB626
:100700000F9211242F933F938F939F93AF93BF9397
:100710008091980290919902A0919A02B0919B02C7
:100720003091970223E0230F2D3720F40196A11D6D
:10073000B11D05C026E8230F0296A11DB11D20930F
:1007400097028093980290939902A0939A02B09393
:100750009B0280919C0290919D02A0919E02B0917B
:100760009F020196A11DB11D80939C0290939D0252
:10077000A0939E02B0939F02BF91AF919F918F91E2
:100780003F912F910F900FBE0F901F901895789466
:1007900084B5826084BD84B5816084BD85B5826086
:1007A00085BD85B5816085BDEEE6F0E08081816024
:1007B0008083E1E8F0E01082808182608083808124
:1007C00081608083E0E8F0E0808181608083E1EBFC
:1007D000F0E0808184608083E0EBF0E080818160E4
:1007E0008083EAE7F0E0808184608083808182609A
:1007F0008083808181608083808180688083109283
:10080000C1000895A1E21A2EAA1BBB1BFD010DC059
:10081000AA1FBB1FEE1FFF1FA217B307E407F507B0
:1008200020F0A21BB30BE40BF50B661F771F881F8C
:10083000991F1A9469F760957095809590959B0122
:10084000AC01BD01CF010895EE0FFF1F0590F4919B
:08085000E02D0994F894FFCF9C
:100858004D546864000000060001000200C04D54B9
:10086800726B0000006500FF58040402180800FFBE
:10087800510307A12000FF03056D616A6F720090A4
:100888003064813F80303001903C64813F803C304F
:1008980001903064813F80303001903C64813F801A
:1008A8003C3001904064813F80403001903C64813D
:1008B8003F803C3001903064813F80303001903C73
:1008C80064813F803C30B001FF2F004D54726B00B3
:1008D80000005600FF03056D696E6F720090486452
:1008E800813E80483001905464813F8054300190AB
:1008F8004864813F80483001905464813F8054307F
:1009080001905764813F80573001905464813F8043
:10091800543001904864813F80483001905464818C
:100928003F805430B002FF2F0050726F6772616DC4
:1009380020737461727465642E0000000000070162
:0A09480083028900A2009400E5007C
:00000001FF
